<svg width="20" height="21" viewBox="0 0 20 21" fill="none" xmlns="http://www.w3.org/2000/svg">
<path d="M19 19.1232C19 19.1234 19 19.1236 19 19.1239C18.9995 19.2824 18.9564 19.4379 18.8753 19.5741C18.794 19.7104 18.6776 19.8225 18.5382 19.8984L18.5381 19.8984C18.4134 19.9663 18.2735 20.0013 18.1316 20V20H18.125H13.25C13.2334 20 13.2175 19.9934 13.2058 19.9817C13.1941 19.97 13.1875 19.9541 13.1875 19.9375V15.0625C13.1875 14.6481 13.0229 14.2507 12.7298 13.9577C12.4368 13.6646 12.0394 13.5 11.625 13.5H8.37497C7.96057 13.5 7.56315 13.6646 7.27012 13.9577C6.97709 14.2507 6.81247 14.6481 6.81247 15.0625V19.9375C6.81247 19.9541 6.80589 19.97 6.79417 19.9817L7.3245 20.512L6.79417 19.9817C6.78245 19.9934 6.76655 20 6.74997 20L1.87497 20L1.87214 20C1.74868 20.0005 1.62655 19.9745 1.51397 19.9239C1.40225 19.8736 1.3025 19.8002 1.22131 19.7084C1.07507 19.5385 0.996259 19.3207 0.999875 19.0965H0.999973V19.0844L0.999973 9.73073C0.999973 9.73068 0.999973 9.73063 0.999973 9.73058C0.999973 9.73055 0.999973 9.73052 0.999973 9.73049C1.00004 9.60916 1.02535 9.48918 1.07427 9.37815C1.12308 9.26741 1.19432 9.16799 1.2835 9.08619C1.28378 9.08593 1.28407 9.08567 1.28435 9.08541L9.4075 1.70351L9.40935 1.70182C9.57065 1.55425 9.78135 1.47241 9.99997 1.47241C10.2186 1.47241 10.4293 1.55425 10.5906 1.70183L10.5924 1.70351L18.7156 9.08541C18.7158 9.08562 18.716 9.08583 18.7163 9.08604C18.8055 9.16787 18.8768 9.26734 18.9257 9.37815C18.9746 9.48918 18.9999 9.60916 19 9.73049C19 9.73057 19 9.73065 19 9.73073L19 19.1232Z" fill="black" stroke="black" stroke-width="1.5"/>
</svg>
